<?xml version="1.0" encoding="UTF-8" standalone="no"?>
<!-- Created with Inkscape (http://www.inkscape.org/) -->

<svg
   width="39.482243mm"
   height="39.482243mm"
   viewBox="0 0 39.482243 39.482243"
   version="1.1"
   id="svg5"
   xml:space="preserve"
   inkscape:version="1.2.2 (b0a8486541, 2022-12-01)"
   sodipodi:docname="favicon.svg"
   xmlns:inkscape="http://www.inkscape.org/namespaces/inkscape"
   xmlns:sodipodi="http://sodipodi.sourceforge.net/DTD/sodipodi-0.dtd"
   xmlns="http://www.w3.org/2000/svg"
   xmlns:svg="http://www.w3.org/2000/svg"><sodipodi:namedview
     id="namedview7"
     pagecolor="#ffffff"
     bordercolor="#000000"
     borderopacity="0.25"
     inkscape:showpageshadow="2"
     inkscape:pageopacity="0.0"
     inkscape:pagecheckerboard="true"
     inkscape:deskcolor="#d1d1d1"
     inkscape:document-units="mm"
     showgrid="false"
     inkscape:zoom="1.1893044"
     inkscape:cx="91.229798"
     inkscape:cy="-9.2491039"
     inkscape:window-width="1367"
     inkscape:window-height="911"
     inkscape:window-x="276"
     inkscape:window-y="205"
     inkscape:window-maximized="0"
     inkscape:current-layer="layer1" /><defs
     id="defs2" /><g
     inkscape:label="Layer 1"
     inkscape:groupmode="layer"
     id="layer1"
     transform="translate(-37.29147,-114.00154)"><rect
       style="fill:#ffffff;stroke-width:1"
       id="rect630"
       width="39.482243"
       height="39.482243"
       x="37.29147"
       y="114.00154"
       rx="3.1052718"
       ry="3.1052718" /><g
       id="g686"
       transform="matrix(1.213948,0,0,1.213948,-53.308686,9.6526535)"><path
         style="fill:#ffcc00;stroke-width:1"
         d="m 81.483038,106.39763 5.794512,-15.791677 3.945919,8.631211 9.450011,-1.201153 -10.969058,17.293609 1.27925,-9.50167 z"
         id="path576" /><path
         style="fill:#000000;stroke-width:0.264583"
         d="m 88.48762,116.00769 -0.90237,-0.75499 0.69322,-2.19423 c 0.6146,-1.94541 1.00986,-3.38596 1.40062,-5.10464 0.24328,-1.07006 -0.21624,-1.28722 -1.77745,-0.84 -3.221086,0.9227 -6.744494,1.32597 -8.23508,0.94254 -0.870347,-0.22389 -0.992188,-0.35306 -0.992188,-1.05192 0,-0.43818 0.184568,-1.15361 0.41015,-1.58984 0.225583,-0.43622 0.832016,-2.00513 1.347631,-3.48645 0.515612,-1.48132 1.147704,-2.993726 1.404646,-3.360906 0.672503,-0.96102 2.461959,-5.066 3.324525,-7.62639 0.871886,-2.58803 1.678926,-3.468348 2.592826,-2.82822 0.53651,0.37578 1.70043,3.2132 3.08716,7.52594 l 0.62185,1.93397 3.19327,-0.18678 c 1.75629,-0.10273 3.31389,-0.2808 3.46133,-0.39571 0.4081,-0.31806 3.92214,-0.56388 4.33785,-0.30344 0.58857,0.36873 0.156,1.82881 -1.18735,4.007666 -0.66729,1.08233 -1.30104,2.0274 -1.40834,2.10016 -0.10731,0.0728 -1.31631,2.02481 -2.68668,4.33788 -2.23905,3.77936 -3.60341,5.64456 -6.05999,8.28462 -1.2822,1.37796 -1.59942,1.44933 -2.62563,0.59074 z m 3.59567,-5.87105 c 0.39355,-0.61847 0.9964,-1.66026 1.33966,-2.31511 1.31417,-2.50706 2.36582,-4.27415 3.70611,-6.22735 0.76399,-1.11335 1.38906,-2.140756 1.38906,-2.283126 0,-0.45518 -2.91889,0.0719 -5.65881,1.021866 -1.54248,0.53479 -2.71343,0.8097 -2.85327,0.66986 -0.13044,-0.13044 -0.33907,-0.82248 -0.46362,-1.537846 -0.21636,-1.24278 -0.99949,-3.41121 -1.77448,-4.91339 -0.19928,-0.38625 -0.36232,-0.91608 -0.36232,-1.17739 0,-1.54214 -1.55813,3.19495 -1.96719,5.98072 -0.09616,0.654836 -0.466781,2.001386 -0.823611,2.992326 -0.997691,2.77066 -0.955347,2.90347 0.872574,2.73672 1.529667,-0.13953 4.120967,-0.50991 5.939937,-0.849 0.88178,-0.16439 0.99471,-0.11987 1.13733,0.44835 0.0871,0.34698 -0.0128,1.0462 -0.22204,1.55384 -0.2092,0.50763 -0.4679,1.57781 -0.57489,2.37817 -0.10699,0.80037 -0.29585,1.7231 -0.41968,2.05052 -0.34834,0.92099 -0.0517,0.70749 0.73524,-0.52916 z"
         id="path302"
         sodipodi:nodetypes="scssssssssssscsssssssssssssssssssssscsss" /></g></g></svg>
