<?xml version="1.0" encoding="UTF-8" standalone="no"?>
<!-- Created with Inkscape (http://www.inkscape.org/) -->

<svg
   width="138.22301mm"
   height="31.851mm"
   viewBox="0 0 138.22385 31.851205"
   version="1.1"
   id="svg2947"
   inkscape:version="1.2.2 (b0a8486541, 2022-12-01)"
   sodipodi:docname="logo-horizontal.svg"
   xmlns:inkscape="http://www.inkscape.org/namespaces/inkscape"
   xmlns:sodipodi="http://sodipodi.sourceforge.net/DTD/sodipodi-0.dtd"
   xmlns="http://www.w3.org/2000/svg"
   xmlns:svg="http://www.w3.org/2000/svg">
  <sodipodi:namedview
     id="namedview2949"
     pagecolor="#ffffff"
     bordercolor="#000000"
     borderopacity="0.25"
     inkscape:showpageshadow="2"
     inkscape:pageopacity="0.0"
     inkscape:pagecheckerboard="0"
     inkscape:deskcolor="#d1d1d1"
     inkscape:document-units="mm"
     showgrid="false"
     inkscape:zoom="0.5946522"
     inkscape:cx="28.588139"
     inkscape:cy="-7.5674487"
     inkscape:window-width="1920"
     inkscape:window-height="1138"
     inkscape:window-x="1920"
     inkscape:window-y="32"
     inkscape:window-maximized="1"
     inkscape:current-layer="layer1" />
  <defs
     id="defs2944" />
  <g
     inkscape:groupmode="layer"
     id="layer3"
     inkscape:label="Colors"
     transform="translate(-35.645899,-87.899276)">
    <path
       style="fill:#ff8080;fill-opacity:1;stroke-width:0.259529"
       d="m 63.160439,105.86841 c -1.994767,0.0792 -4.281397,0.58783 -5.488631,2.29166 0.884675,1.48734 2.856512,2.58717 3.310515,4.26956 -0.986644,0.13253 -0.907228,-1.25164 -1.695556,-1.60685 -2.171825,-2.34644 -5.239636,-3.93091 -8.49704,-3.65977 -2.505227,0.17778 -5.54077,0.0237 -7.454866,1.91808 -0.327027,1.45345 1.527364,2.30112 2.464003,3.09965 3.330398,2.24011 7.215136,4.08248 11.334779,3.63058 5.242747,-0.37061 10.647689,-1.95309 14.619635,-5.53447 0.394525,-1.17149 -1.415506,-1.79371 -2.156318,-2.52077 -1.852312,-1.37566 -4.147478,-1.97063 -6.436521,-1.88767 z"
       id="path1848" />
    <path
       style="fill:#666666;fill-opacity:1;stroke-width:0.259529"
       d="m 51.01124,94.409097 c -3.884439,0.632627 -8.204941,2.628172 -9.363824,6.732033 -0.395514,1.62024 -0.701142,3.57038 0.0735,5.09022 1.376764,0.52737 2.652207,-0.94923 4.08302,-0.79583 2.047251,9.3e-4 4.243721,-0.56682 6.18905,0.0733 1.349034,0.36694 2.665884,1.59378 4.044095,1.41688 3.184512,-3.43003 8.952794,-3.82769 12.695629,-1.10451 1.464815,0.75306 2.304657,2.50306 3.816395,3.05048 1.366245,-0.93947 2.20271,-2.58957 2.946057,-4.0521 0.459644,-1.83388 0.760655,-3.91221 0.261557,-5.744605 -1.320875,-0.897003 -2.854661,0.718006 -4.299465,0.539842 -4.519161,0.128118 -9.136868,0.515253 -13.43569,-1.177513 C 55.28045,98.08694 53.615936,95.547723 51.2287,94.421692 l -0.136356,-0.01522 z"
       id="path1850" />
    <path
       style="fill:#f9f9f9;fill-opacity:1;stroke-width:0.308658"
       d="m 52.78571,94.359882 8.065708,4.042576 6.406234,0.611216 8.816814,-1.345467 -1.427036,-4.393744 -4.517858,-2.586808 -5.148292,0.60583 -5.536689,1.980921 z"
       id="path2044" />
  </g>
  <g
     inkscape:label="Lines"
     inkscape:groupmode="layer"
     id="layer1"
     transform="translate(-35.645899,-87.899276)">
    <g
       aria-label="RequestBite"
       id="text250"
       style="font-size:18.5236px;font-family:'RobotoMono Nerd Font';-inkscape-font-specification:'RobotoMono Nerd Font';fill:none;stroke:#7a7a7a;stroke-width:4.77346">
      <path
         d="m 84.050054,96.960227 h 3.681203 q 1.284351,0 2.152645,0.452236 0.877339,0.452237 1.32053,1.33862 0.452237,0.877338 0.452237,2.161687 0,0.90448 -0.298476,1.65519 -0.298476,0.74167 -0.868294,1.26626 -0.569818,0.51555 -1.383843,0.7688 l -0.452237,0.18994 h -3.283235 l -0.01809,-1.42002 h 2.360674 q 0.759757,0 1.266262,-0.32561 0.506504,-0.33466 0.759757,-0.89543 0.253252,-0.56077 0.253252,-1.23913 0,-0.75975 -0.226118,-1.329572 -0.226118,-0.569818 -0.723578,-0.877339 -0.488416,-0.316565 -1.311486,-0.316565 h -2.016974 v 11.740056 h -1.664229 z m 6.322263,13.169123 -2.62297,-5.96952 1.727543,-0.009 2.677239,5.87003 v 0.10854 z"
         style="font-family:'Roboto Condensed';-inkscape-font-specification:'Roboto Condensed, ';fill:#000000;stroke:none"
         id="path1017" />
      <path
         d="m 97.155862,110.31024 q -0.877338,0 -1.582827,-0.26229 -0.705489,-0.2623 -1.202949,-0.79594 -0.49746,-0.54268 -0.759757,-1.36575 -0.262297,-0.82307 -0.262297,-1.94462 v -1.10346 q 0,-1.29339 0.298476,-2.18882 0.307521,-0.89543 0.82307,-1.43811 0.51555,-0.55173 1.16677,-0.79594 0.65122,-0.25325 1.338619,-0.25325 0.922563,0 1.573783,0.29848 0.65122,0.29847 1.058233,0.88638 0.407017,0.58791 0.596947,1.44716 0.19899,0.85924 0.19899,1.98079 v 0.93161 h -6.114236 v -1.36576 h 4.513318 v -0.22611 q -0.03618,-0.75976 -0.208028,-1.33862 -0.162806,-0.57887 -0.542684,-0.90448 -0.379879,-0.33465 -1.076323,-0.33465 -0.443191,0 -0.82307,0.15376 -0.370833,0.14471 -0.642175,0.51555 -0.262297,0.36179 -0.416058,1.00396 -0.144715,0.64218 -0.144715,1.62805 v 1.10346 q 0,0.78689 0.144715,1.35671 0.153761,0.56077 0.443192,0.93161 0.298476,0.36179 0.723578,0.54268 0.434147,0.17185 0.985875,0.17185 0.804981,0 1.329575,-0.30752 0.524594,-0.31657 0.913517,-0.80498 l 0.841159,1.00396 q -0.2623,0.37084 -0.687398,0.71454 -0.416058,0.33465 -1.031099,0.55172 -0.605997,0.20803 -1.456201,0.20803 z"
         style="font-family:'Roboto Condensed';-inkscape-font-specification:'Roboto Condensed, ';fill:#000000;stroke:none"
         id="path1019" />
      <path
         d="m 107.45781,113.89195 v -11.66769 l 0.13567,-1.88131 h 1.46524 v 13.549 z m -5.46302,-8.18547 v -0.91352 q 0,-1.21199 0.22612,-2.08029 0.22612,-0.87734 0.65122,-1.43811 0.4251,-0.56982 1.04014,-0.84116 0.61504,-0.27134 1.40194,-0.27134 0.75975,0 1.31148,0.30752 0.56077,0.30752 0.94065,0.89543 0.37988,0.57886 0.59695,1.41098 0.21708,0.82307 0.28944,1.86321 v 1.22104 q -0.0814,1.0311 -0.29848,1.85417 -0.21707,0.82307 -0.59695,1.40193 -0.37988,0.57886 -0.94065,0.88638 -0.56078,0.30752 -1.32053,0.30752 -0.76881,0 -1.38385,-0.28038 -0.60599,-0.28943 -1.04014,-0.85925 -0.4251,-0.57886 -0.65122,-1.43811 -0.22612,-0.8683 -0.22612,-2.02602 z m 1.60092,-0.91352 v 0.91352 q 0,0.81402 0.12662,1.42906 0.12663,0.606 0.37988,1.01301 0.2623,0.39797 0.66027,0.59696 0.39797,0.19898 0.94969,0.19898 0.66931,0 1.10346,-0.33466 0.43415,-0.33465 0.70549,-0.88638 0.27134,-0.55173 0.4251,-1.18486 v -2.5687 q -0.0904,-0.46128 -0.27134,-0.89543 -0.17185,-0.43414 -0.44319,-0.77784 -0.27134,-0.35275 -0.64218,-0.55173 -0.37083,-0.20803 -0.85925,-0.20803 -0.55173,0 -0.95874,0.20803 -0.40701,0.19898 -0.66931,0.60599 -0.25325,0.40702 -0.37988,1.02206 -0.12662,0.60599 -0.12662,1.42002 z"
         style="font-family:'Roboto Condensed';-inkscape-font-specification:'Roboto Condensed, ';fill:#000000;stroke:none"
         id="path1021" />
      <path
         d="m 116.5568,107.86817 v -7.52522 h 1.60092 v 9.7864 h -1.51952 z m 0.29848,-2.0622 0.63313,-0.0181 q 0,0.97683 -0.17185,1.80895 -0.16281,0.82307 -0.54269,1.42906 -0.37083,0.606 -0.98587,0.9497 -0.61504,0.33465 -1.51047,0.33465 -0.606,0 -1.10346,-0.20803 -0.48841,-0.20802 -0.8502,-0.64217 -0.35275,-0.43415 -0.55173,-1.13059 -0.18994,-0.69645 -0.18994,-1.67328 v -6.31322 h 1.59187 v 6.33131 q 0,0.66027 0.11759,1.09442 0.11758,0.4251 0.31656,0.67835 0.19898,0.24421 0.44319,0.3437 0.24421,0.0995 0.49746,0.0995 0.85021,0 1.35671,-0.40701 0.50651,-0.41606 0.72358,-1.1125 0.22612,-0.70549 0.22612,-1.56474 z"
         style="font-family:'Roboto Condensed';-inkscape-font-specification:'Roboto Condensed, ';fill:#000000;stroke:none"
         id="path1023" />
      <path
         d="m 124.06392,110.31024 q -0.87734,0 -1.58283,-0.26229 -0.70548,-0.2623 -1.20294,-0.79594 -0.49746,-0.54268 -0.75976,-1.36575 -0.2623,-0.82307 -0.2623,-1.94462 v -1.10346 q 0,-1.29339 0.29848,-2.18882 0.30752,-0.89543 0.82307,-1.43811 0.51555,-0.55173 1.16677,-0.79594 0.65122,-0.25325 1.33862,-0.25325 0.92256,0 1.57378,0.29848 0.65122,0.29847 1.05823,0.88638 0.40702,0.58791 0.59695,1.44716 0.19899,0.85924 0.19899,1.98079 v 0.93161 h -6.11424 v -1.36576 h 4.51332 v -0.22611 q -0.0362,-0.75976 -0.20803,-1.33862 -0.1628,-0.57887 -0.54268,-0.90448 -0.37988,-0.33465 -1.07632,-0.33465 -0.44319,0 -0.82307,0.15376 -0.37084,0.14471 -0.64218,0.51555 -0.2623,0.36179 -0.41606,1.00396 -0.14471,0.64218 -0.14471,1.62805 v 1.10346 q 0,0.78689 0.14471,1.35671 0.15376,0.56077 0.4432,0.93161 0.29847,0.36179 0.72357,0.54268 0.43415,0.17185 0.98588,0.17185 0.80498,0 1.32957,-0.30752 0.5246,-0.31657 0.91352,-0.80498 l 0.84116,1.00396 q -0.2623,0.37084 -0.6874,0.71454 -0.41606,0.33465 -1.0311,0.55172 -0.60599,0.20803 -1.4562,0.20803 z"
         style="font-family:'Roboto Condensed';-inkscape-font-specification:'Roboto Condensed, ';fill:#000000;stroke:none"
         id="path1025" />
      <path
         d="m 133.99503,107.62396 q 0,-0.37083 -0.18089,-0.65122 -0.1809,-0.28039 -0.59695,-0.54268 -0.40702,-0.2623 -1.10346,-0.56078 -0.67836,-0.28038 -1.22104,-0.55173 -0.53364,-0.28038 -0.90447,-0.60599 -0.37084,-0.32561 -0.56982,-0.75071 -0.18994,-0.43415 -0.18994,-1.02206 0,-0.58791 0.21707,-1.08537 0.22612,-0.5065 0.63314,-0.88638 0.40701,-0.37988 0.97683,-0.58791 0.56981,-0.21707 1.2753,-0.21707 1.00397,0 1.70946,0.38892 0.70548,0.38893 1.07632,1.06728 0.37988,0.66931 0.37988,1.51047 h -1.59188 q 0,-0.40701 -0.18089,-0.7688 -0.18089,-0.36179 -0.53364,-0.58791 -0.35274,-0.23516 -0.85925,-0.23516 -0.53364,0 -0.86829,0.18994 -0.33466,0.18994 -0.48842,0.49746 -0.14471,0.29847 -0.14471,0.66026 0,0.27134 0.0724,0.47033 0.0814,0.18994 0.27134,0.36179 0.18994,0.1628 0.51555,0.3437 0.33465,0.17185 0.8502,0.39797 0.99492,0.38892 1.67328,0.78689 0.67835,0.39796 1.03109,0.9316 0.35275,0.53364 0.35275,1.32053 0,0.64218 -0.23516,1.16677 -0.22612,0.51555 -0.65122,0.88639 -0.42511,0.37083 -1.02206,0.56981 -0.58791,0.18994 -1.32053,0.18994 -1.10346,0 -1.87226,-0.43414 -0.75975,-0.4432 -1.15772,-1.14868 -0.38893,-0.71454 -0.38893,-1.52856 h 1.60092 q 0.0271,0.6874 0.30752,1.06728 0.28943,0.37987 0.69645,0.52459 0.40701,0.14471 0.81402,0.14471 0.53364,0 0.89543,-0.15376 0.36179,-0.1628 0.54268,-0.46128 0.18994,-0.29847 0.18994,-0.69644 z"
         style="font-family:'Roboto Condensed';-inkscape-font-specification:'Roboto Condensed, ';fill:#000000;stroke:none"
         id="path1027" />
      <path
         d="m 141.26699,100.34295 v 1.28436 h -4.56758 v -1.28436 z m -3.0752,-2.378758 h 1.60091 v 9.741168 q 0,0.49746 0.11759,0.75071 0.12662,0.25326 0.31656,0.33466 0.18994,0.0814 0.40701,0.0814 0.16281,0 0.36179,-0.0362 0.19899,-0.0452 0.27134,-0.0724 l -0.009,1.36575 q -0.16281,0.0633 -0.43415,0.11758 -0.27134,0.0633 -0.6874,0.0633 -0.51555,0 -0.95874,-0.2442 -0.44319,-0.24421 -0.71453,-0.81403 -0.27134,-0.57886 -0.27134,-1.55569 z"
         style="font-family:'Roboto Condensed';-inkscape-font-specification:'Roboto Condensed, ';fill:#000000;stroke:none"
         id="path1029" />
      <path
         d="m 147.38123,103.96989 h -2.67724 l -0.0181,-1.40193 h 2.4873 q 0.56077,0 0.99492,-0.25325 0.43415,-0.25326 0.67835,-0.72358 0.25326,-0.47937 0.25326,-1.13964 0,-0.723577 -0.21708,-1.175813 -0.20803,-0.461281 -0.64217,-0.66931 -0.42511,-0.217073 -1.08537,-0.217073 h -2.09838 V 110.12935 H 143.3925 V 96.960227 h 3.76261 q 0.8502,0 1.51951,0.208029 0.66931,0.198984 1.13059,0.633131 0.47033,0.425102 0.71454,1.085367 0.2442,0.660265 0.2442,1.582826 0,0.81403 -0.37083,1.47429 -0.36179,0.65122 -1.01301,1.06728 -0.65122,0.41606 -1.50142,0.53364 z m -0.0633,6.15946 h -3.30132 l 0.96778,-1.42002 h 2.33354 q 0.65122,0 1.10346,-0.28943 0.45224,-0.28944 0.6874,-0.81403 0.24421,-0.53364 0.24421,-1.25722 0,-0.73262 -0.19899,-1.26626 -0.19898,-0.53364 -0.63313,-0.82307 -0.43414,-0.28943 -1.13963,-0.28943 h -2.1436 l 0.0181,-1.40193 h 2.89431 l 0.37083,0.5065 q 0.81403,0.0814 1.36576,0.54269 0.56077,0.45223 0.84116,1.15772 0.28943,0.70549 0.28943,1.55569 0,1.23009 -0.46128,2.08029 -0.45224,0.84116 -1.28436,1.28435 -0.83211,0.43415 -1.95366,0.43415 z"
         style="font-family:'Roboto Condensed';-inkscape-font-specification:'Roboto Condensed, ';fill:#000000;stroke:none"
         id="path1031" />
      <path
         d="m 155.00593,100.34295 v 9.7864 h -1.59187 v -9.7864 z m -1.68231,-2.595832 q 0,-0.407012 0.22611,-0.687399 0.22612,-0.280386 0.67836,-0.280386 0.45223,0 0.67835,0.280386 0.23517,0.280387 0.23517,0.687399 0,0.388924 -0.23517,0.66931 -0.22612,0.271342 -0.67835,0.271342 -0.45224,0 -0.67836,-0.271342 -0.22611,-0.280386 -0.22611,-0.66931 z"
         style="font-family:'Roboto Condensed';-inkscape-font-specification:'Roboto Condensed, ';fill:#000000;stroke:none"
         id="path1033" />
      <path
         d="m 161.11113,100.34295 v 1.28436 h -4.56759 v -1.28436 z m -3.07521,-2.378758 h 1.60092 v 9.741168 q 0,0.49746 0.11758,0.75071 0.12662,0.25326 0.31656,0.33466 0.18994,0.0814 0.40701,0.0814 0.16281,0 0.36179,-0.0362 0.19899,-0.0452 0.27135,-0.0724 l -0.009,1.36575 q -0.1628,0.0633 -0.43415,0.11758 -0.27134,0.0633 -0.6874,0.0633 -0.51554,0 -0.95874,-0.2442 -0.44319,-0.24421 -0.71453,-0.81403 -0.27134,-0.57886 -0.27134,-1.55569 z"
         style="font-family:'Roboto Condensed';-inkscape-font-specification:'Roboto Condensed, ';fill:#000000;stroke:none"
         id="path1035" />
      <path
         d="m 166.51987,110.31024 q -0.87734,0 -1.58283,-0.26229 -0.70549,-0.2623 -1.20295,-0.79594 -0.49746,-0.54268 -0.75975,-1.36575 -0.2623,-0.82307 -0.2623,-1.94462 v -1.10346 q 0,-1.29339 0.29848,-2.18882 0.30752,-0.89543 0.82307,-1.43811 0.51555,-0.55173 1.16677,-0.79594 0.65122,-0.25325 1.33862,-0.25325 0.92256,0 1.57378,0.29848 0.65122,0.29847 1.05823,0.88638 0.40701,0.58791 0.59695,1.44716 0.19899,0.85924 0.19899,1.98079 v 0.93161 h -6.11424 v -1.36576 h 4.51332 v -0.22611 q -0.0362,-0.75976 -0.20803,-1.33862 -0.1628,-0.57887 -0.54268,-0.90448 -0.37988,-0.33465 -1.07632,-0.33465 -0.4432,0 -0.82307,0.15376 -0.37084,0.14471 -0.64218,0.51555 -0.2623,0.36179 -0.41606,1.00396 -0.14471,0.64218 -0.14471,1.62805 v 1.10346 q 0,0.78689 0.14471,1.35671 0.15376,0.56077 0.44319,0.93161 0.29848,0.36179 0.72358,0.54268 0.43415,0.17185 0.98588,0.17185 0.80498,0 1.32957,-0.30752 0.5246,-0.31657 0.91352,-0.80498 l 0.84116,1.00396 q -0.2623,0.37084 -0.6874,0.71454 -0.41606,0.33465 -1.0311,0.55172 -0.606,0.20803 -1.4562,0.20803 z"
         style="font-family:'Roboto Condensed';-inkscape-font-specification:'Roboto Condensed, ';fill:#000000;stroke:none"
         id="path1037" />
    </g>
    <path
       style="fill:#000000;stroke-width:0.0915506"
       d="m 53.791954,117.52025 c -2.450149,-0.24555 -4.78211,-1.21485 -6.754777,-2.66547 -1.868855,-1.11394 -3.669955,-2.34076 -5.113348,-3.99398 -2.242793,-1.9298 -2.859786,-5.03627 -2.562592,-7.86304 0.496043,-1.87577 0.973145,-3.839847 2.029281,-5.479885 0.689761,-1.641999 2.598266,-2.839746 4.317091,-3.311338 1.846865,-0.900202 3.88392,-1.164711 5.905749,-1.394082 2.382434,-0.199105 4.789517,0.468963 7.132228,-0.177291 2.185338,-0.07378 3.767516,-1.696111 5.735396,-2.417423 1.958439,-0.978632 4.255561,-1.00721 6.36327,-0.627321 2.092279,0.528083 4.276403,1.573334 5.173423,3.676995 0.989023,1.310901 1.669269,3.642063 1.952676,4.605871 0.08346,1.947376 0.708895,3.927644 0.0047,5.957094 -0.948852,1.48871 -1.648019,3.12488 -2.876654,4.45918 -1.409809,2.11403 -3.461173,3.69809 -5.47352,5.20681 -2.488036,1.4777 -5.173617,2.88063 -8.059682,3.44195 -2.157893,0.4102 -4.440129,0.0331 -6.56604,0.65123 -0.403514,0.0152 -0.806991,-0.0243 -1.207113,-0.0693 z m 6.291212,-2.32214 c 2.298289,-0.48648 4.616637,-0.9367 6.715886,-2.06762 1.76583,-0.86932 3.522023,-1.83828 4.880214,-3.29935 -1.325894,-1.0479 -2.564073,-2.27779 -4.188287,-2.90574 -1.783265,-0.93522 -3.898617,-0.64288 -5.83217,-0.61282 -1.136594,0.23513 -3.889132,1.14195 -3.524237,2.15274 1.277665,1.14087 2.72138,2.24166 3.307666,3.88729 -1.164505,1.49626 -1.990019,-1.55307 -3.191501,-2.09521 -1.424681,-1.34502 -3.175975,-2.36334 -5.174318,-2.66453 -3.021521,-0.23734 -6.231861,-0.24162 -8.990415,1.15747 -1.770302,0.85144 1.058138,2.40757 1.89474,3.21746 2.99077,2.08724 6.531924,3.6949 10.258005,3.49907 1.27962,-0.0266 2.599318,0.089 3.844417,-0.26876 z m 12.568213,-6.48101 c 1.146861,-1.77416 2.933484,-3.4555 2.881213,-5.72036 0.35019,-1.53677 0.614713,-5.684665 -1.750917,-3.49643 -3.812599,0.94254 -7.837137,0.97446 -11.71601,0.417235 -2.036283,-0.539578 -4.033602,-1.058741 -6.036784,-1.630719 -1.74393,-0.999079 -3.069859,-2.845295 -4.960808,-3.453623 -2.851954,0.304187 -5.879658,1.362456 -7.677917,3.705868 -1.329997,1.730459 -2.112766,3.902409 -1.795018,6.104959 -0.1801,3.20362 2.796968,-0.004 4.460047,0.30831 1.994018,-0.18696 4.112297,-0.32241 6.043105,0.26938 1.356312,-0.0823 2.84887,2.12476 3.94661,1.15385 1.811667,-1.96894 4.566537,-2.62602 7.148202,-2.74099 2.606521,-0.0357 5.126096,1.1066 6.989858,2.85258 0.676707,0.70954 1.864917,1.85324 2.468419,2.22994 z M 68.993693,97.710601 c 0.576081,-1.498637 0.921451,-3.035698 0.762818,-4.603477 0.274908,-1.615462 -2.643982,-0.671023 -3.5938,-0.617679 0.136878,1.656251 -1.25321,4.231771 -0.166584,5.327372 0.977727,-0.233351 2.215446,0.595533 2.997566,-0.106216 z m 3.001571,9.96e-4 c 1.44563,-0.35845 4.078123,-0.632809 2.398467,-2.573579 -0.752345,-1.285632 -4.327142,-3.762047 -3.370144,-0.549266 0.146763,1.198793 -1.649964,4.303117 0.971677,3.122845 z m -7.61258,-0.637564 c -0.102087,-1.212377 1.000466,-3.671999 -0.03572,-4.161101 -1.511703,0.900853 -4.274988,0.89248 -4.136601,3.198667 -0.519791,1.495553 2.438857,1.428394 3.478647,1.521029 0.527462,0.0071 0.800266,0.104815 0.693665,-0.558595 z m -5.376002,-0.892619 c 0.5999,-1.666632 -0.557775,-1.550343 -1.870308,-1.301059 -3.116707,-0.003 1.509843,1.826611 1.870308,1.301059 z"
       id="path228"
       sodipodi:nodetypes="sssssssssssssscscsssssssscssssssssssssssssssssssssssssssssssssss" />
  </g>
</svg>
