<?xml version="1.0" encoding="UTF-8" standalone="no"?>
<!-- Created with Inkscape (http://www.inkscape.org/) -->

<svg
   width="118.223mm"
   height="31.851mm"
   viewBox="0 0 118.22364 31.851205"
   version="1.1"
   id="svg2947"
   inkscape:version="1.2.2 (b0a8486541, 2022-12-01)"
   sodipodi:docname="logo-horizontal-slingshot.svg"
   xmlns:inkscape="http://www.inkscape.org/namespaces/inkscape"
   xmlns:sodipodi="http://sodipodi.sourceforge.net/DTD/sodipodi-0.dtd"
   xmlns="http://www.w3.org/2000/svg"
   xmlns:svg="http://www.w3.org/2000/svg">
  <sodipodi:namedview
     id="namedview2949"
     pagecolor="#ffffff"
     bordercolor="#000000"
     borderopacity="0.25"
     inkscape:showpageshadow="2"
     inkscape:pageopacity="0.0"
     inkscape:pagecheckerboard="0"
     inkscape:deskcolor="#d1d1d1"
     inkscape:document-units="mm"
     showgrid="false"
     inkscape:zoom="1.1893044"
     inkscape:cx="200.11698"
     inkscape:cy="-2.1020691"
     inkscape:window-width="1920"
     inkscape:window-height="1050"
     inkscape:window-x="3840"
     inkscape:window-y="120"
     inkscape:window-maximized="1"
     inkscape:current-layer="text250" />
  <defs
     id="defs2944" />
  <g
     inkscape:groupmode="layer"
     id="layer3"
     inkscape:label="Colors"
     transform="translate(-35.645899,-87.899276)">
    <path
       style="fill:#ff8080;fill-opacity:1;stroke-width:0.259529"
       d="m 63.160439,105.86841 c -1.994767,0.0792 -4.281397,0.58783 -5.488631,2.29166 0.884675,1.48734 2.856512,2.58717 3.310515,4.26956 -0.986644,0.13253 -0.907228,-1.25164 -1.695556,-1.60685 -2.171825,-2.34644 -5.239636,-3.93091 -8.49704,-3.65977 -2.505227,0.17778 -5.54077,0.0237 -7.454866,1.91808 -0.327027,1.45345 1.527364,2.30112 2.464003,3.09965 3.330398,2.24011 7.215136,4.08248 11.334779,3.63058 5.242747,-0.37061 10.647689,-1.95309 14.619635,-5.53447 0.394525,-1.17149 -1.415506,-1.79371 -2.156318,-2.52077 -1.852312,-1.37566 -4.147478,-1.97063 -6.436521,-1.88767 z"
       id="path1848" />
    <path
       style="fill:#666666;fill-opacity:1;stroke-width:0.259529"
       d="m 51.01124,94.409097 c -3.884439,0.632627 -8.204941,2.628172 -9.363824,6.732033 -0.395514,1.62024 -0.701142,3.57038 0.0735,5.09022 1.376764,0.52737 2.652207,-0.94923 4.08302,-0.79583 2.047251,9.3e-4 4.243721,-0.56682 6.18905,0.0733 1.349034,0.36694 2.665884,1.59378 4.044095,1.41688 3.184512,-3.43003 8.952794,-3.82769 12.695629,-1.10451 1.464815,0.75306 2.304657,2.50306 3.816395,3.05048 1.366245,-0.93947 2.20271,-2.58957 2.946057,-4.0521 0.459644,-1.83388 0.760655,-3.91221 0.261557,-5.744605 -1.320875,-0.897003 -2.854661,0.718006 -4.299465,0.539842 -4.519161,0.128118 -9.136868,0.515253 -13.43569,-1.177513 C 55.28045,98.08694 53.615936,95.547723 51.2287,94.421692 l -0.136356,-0.01522 z"
       id="path1850" />
    <path
       style="fill:#f9f9f9;fill-opacity:1;stroke-width:0.308658"
       d="m 52.78571,94.359882 8.065708,4.042576 6.406234,0.611216 8.816814,-1.345467 -1.427036,-4.393744 -4.517858,-2.586808 -5.148292,0.60583 -5.536689,1.980921 z"
       id="path2044" />
  </g>
  <g
     inkscape:label="Lines"
     inkscape:groupmode="layer"
     id="layer1"
     transform="translate(-35.645899,-87.899276)">
    <g
       aria-label="RequestBite"
       id="text250"
       style="font-size:18.5236px;font-family:'RobotoMono Nerd Font';-inkscape-font-specification:'RobotoMono Nerd Font';fill:none;stroke:#7a7a7a;stroke-width:4.77346">
      <g
         aria-label="Slingshot"
         id="text1188"
         style="font-size:18.2702px;font-family:'Roboto Condensed';-inkscape-font-specification:'Roboto Condensed, ';fill:#000000;stroke:none;stroke-width:4.70816">
        <path
           d="m 90.557713,106.90908 q 0,-0.45497 -0.107052,-0.80289 -0.107052,-0.35684 -0.374682,-0.64231 -0.26763,-0.28547 -0.749364,-0.54418 -0.481734,-0.25871 -1.222176,-0.52634 -0.80289,-0.28547 -1.454123,-0.63339 -0.651232,-0.35684 -1.115124,-0.81181 -0.454971,-0.45497 -0.704759,-1.04376 -0.249788,-0.58878 -0.249788,-1.34707 0,-0.758282 0.258709,-1.400594 0.26763,-0.642311 0.749364,-1.115124 0.490654,-0.481734 1.177571,-0.749364 0.686917,-0.26763 1.534412,-0.26763 1.266781,0 2.132118,0.562023 0.874257,0.553102 1.320307,1.454122 0.44605,0.8921 0.44605,1.909097 h -1.641463 q 0,-0.73153 -0.240867,-1.293548 -0.231946,-0.570944 -0.731522,-0.892099 -0.490655,-0.330077 -1.284623,-0.330077 -0.71368,0 -1.177572,0.276551 -0.454971,0.27655 -0.677996,0.749363 -0.214104,0.472813 -0.214104,1.07944 0,0.41037 0.142736,0.74936 0.142736,0.33008 0.437129,0.61555 0.303314,0.28548 0.749364,0.52634 0.454971,0.24087 1.070519,0.46389 0.954547,0.31224 1.632543,0.69584 0.677996,0.3836 1.106203,0.86534 0.428208,0.47281 0.62447,1.07944 0.205183,0.59771 0.205183,1.35599 0,0.79397 -0.26763,1.43628 -0.258709,0.64231 -0.758285,1.09728 -0.499575,0.45497 -1.204334,0.70476 -0.704759,0.24087 -1.587937,0.24087 -0.767206,0 -1.507649,-0.24979 -0.731522,-0.24979 -1.329228,-0.74936 -0.597707,-0.49958 -0.954547,-1.2311 -0.35684,-0.74044 -0.35684,-1.71283 h 1.641464 q 0,0.66907 0.196261,1.15081 0.196262,0.47281 0.544181,0.78504 0.347919,0.31224 0.793969,0.4639 0.454971,0.14273 0.972389,0.14273 0.713679,0 1.195413,-0.24979 0.490655,-0.24978 0.731522,-0.71368 0.249788,-0.46389 0.249788,-1.09728 z"
           id="path2520" />
        <path
           d="M 95.830022,96.489358 V 110.19201 H 94.259926 V 96.489358 Z"
           id="path2522" />
        <path
           d="m 100.02289,100.53949 v 9.65252 h -1.570096 v -9.65252 z m -1.659306,-2.560325 q 0,-0.401445 0.223025,-0.677996 0.223025,-0.276551 0.669075,-0.276551 0.44605,0 0.669075,0.276551 0.231941,0.276551 0.231941,0.677996 0,0.383603 -0.231941,0.660154 -0.223025,0.267629 -0.669075,0.267629 -0.44605,0 -0.669075,-0.267629 -0.223025,-0.276551 -0.223025,-0.660154 z"
           id="path2524" />
        <path
           d="m 104.09979,102.60024 v 7.59177 h -1.57902 v -9.65252 h 1.48981 z m -0.38361,2.39975 -0.64231,-0.0268 q -0.009,-0.99023 0.22303,-1.82881 0.24086,-0.84749 0.67799,-1.47196 0.44605,-0.62447 1.0616,-0.96347 0.61555,-0.34792 1.36491,-0.34792 0.58879,0 1.07052,0.19626 0.48174,0.18734 0.82073,0.60663 0.339,0.41929 0.51742,1.08836 0.18734,0.66016 0.18734,1.6147 v 6.32499 h -1.57901 v -6.34283 q 0,-0.75828 -0.1695,-1.21326 -0.16058,-0.46389 -0.49958,-0.66907 -0.33008,-0.2141 -0.83857,-0.2141 -0.46389,0 -0.86534,0.25871 -0.40144,0.2587 -0.70476,0.71367 -0.29439,0.45498 -0.46389,1.04376 -0.16058,0.57987 -0.16058,1.2311 z"
           id="path2526" />
        <path
           d="m 116.5981,100.53949 h 1.41844 v 9.73281 q 0,1.2757 -0.44605,2.10535 -0.43713,0.82966 -1.22218,1.22218 -0.78504,0.40144 -1.81096,0.40144 -0.36576,0 -0.91886,-0.13381 -0.5531,-0.13382 -1.10621,-0.41037 -0.5531,-0.26763 -0.90994,-0.67799 l 0.65124,-1.09728 q 0.50849,0.51741 1.07944,0.74044 0.57094,0.22302 1.08836,0.22302 0.61555,0 1.07052,-0.22302 0.45497,-0.22303 0.70476,-0.73152 0.24978,-0.49958 0.24978,-1.33815 v -7.6899 z m -5.54886,5.29015 v -0.90102 q 0,-1.19541 0.22303,-2.05183 0.22302,-0.86533 0.64231,-1.41844 0.42821,-0.56202 1.02591,-0.82965 0.59771,-0.26763 1.33815,-0.26763 0.74937,0 1.29355,0.30331 0.54418,0.30332 0.90102,0.88318 0.36576,0.57095 0.57094,1.39168 0.2141,0.81181 0.29439,1.83772 v 1.20434 q -0.0803,1.01699 -0.29439,1.8288 -0.20518,0.81181 -0.57986,1.38276 -0.36576,0.57094 -0.90995,0.87426 -0.54418,0.30331 -1.29354,0.30331 -0.73152,0 -1.32031,-0.27655 -0.58878,-0.28547 -1.01699,-0.8475 -0.41929,-0.57094 -0.65123,-1.41844 -0.22303,-0.85641 -0.22303,-1.9983 z m 1.57902,-0.90102 v 0.90102 q 0,0.80289 0.11597,1.4006 0.11597,0.58878 0.35684,0.98131 0.24979,0.3836 0.63339,0.57094 0.39253,0.18734 0.93671,0.18734 0.66015,0 1.07944,-0.32115 0.41928,-0.32116 0.66907,-0.8475 0.25871,-0.53526 0.41037,-1.15081 v -2.53356 q -0.0892,-0.45497 -0.25871,-0.87426 -0.16058,-0.42821 -0.41929,-0.75828 -0.25871,-0.339 -0.62447,-0.53526 -0.35684,-0.19626 -0.83857,-0.19626 -0.54418,0 -0.93671,0.19626 -0.39252,0.19626 -0.64231,0.58878 -0.24979,0.39253 -0.36576,0.99023 -0.11597,0.59771 -0.11597,1.4006 z"
           id="path2528" />
        <path
           d="m 125.06413,107.72089 q 0,-0.36576 -0.17842,-0.64231 -0.17842,-0.27655 -0.58879,-0.53526 -0.40144,-0.25871 -1.08836,-0.5531 -0.66908,-0.27655 -1.20434,-0.54418 -0.52633,-0.27655 -0.89209,-0.59771 -0.36577,-0.32115 -0.56203,-0.74044 -0.18734,-0.42821 -0.18734,-1.00807 0,-0.57987 0.21411,-1.07052 0.22302,-0.49958 0.62447,-0.87426 0.40144,-0.37468 0.96346,-0.57987 0.56203,-0.2141 1.25786,-0.2141 0.99023,0 1.68607,0.3836 0.69584,0.38361 1.0616,1.05268 0.37468,0.66016 0.37468,1.48981 h -1.57009 q 0,-0.40145 -0.17842,-0.75829 -0.17842,-0.35684 -0.52634,-0.57986 -0.34792,-0.23195 -0.8475,-0.23195 -0.52634,0 -0.85641,0.18734 -0.33008,0.18734 -0.48174,0.49066 -0.14273,0.29439 -0.14273,0.65123 0,0.26763 0.0714,0.46389 0.0803,0.18734 0.26763,0.35684 0.18734,0.16058 0.50849,0.339 0.33008,0.1695 0.83858,0.39252 0.98131,0.38361 1.65038,0.77613 0.66908,0.39252 1.01699,0.91886 0.34792,0.52634 0.34792,1.30247 0,0.63339 -0.23194,1.15081 -0.22303,0.50849 -0.64231,0.87426 -0.41929,0.36576 -1.00808,0.56202 -0.57986,0.18734 -1.30246,0.18734 -1.08836,0 -1.84665,-0.42821 -0.74936,-0.43713 -1.14189,-1.13297 -0.3836,-0.70475 -0.3836,-1.50764 h 1.57902 q 0.0268,0.67799 0.30331,1.05267 0.28547,0.37469 0.68692,0.51742 0.40144,0.14274 0.80289,0.14274 0.52634,0 0.88318,-0.15166 0.35684,-0.16058 0.53526,-0.45497 0.18734,-0.29439 0.18734,-0.68692 z"
           id="path2530" />
        <path
           d="m 130.29183,96.489358 v 13.702652 h -1.57902 V 96.489358 Z m -0.3836,8.510632 -0.64231,-0.0268 q -0.009,-0.99023 0.22302,-1.82881 0.24087,-0.84749 0.678,-1.47196 0.44605,-0.62447 1.06159,-0.96347 0.61555,-0.34792 1.36492,-0.34792 0.58878,0 1.07052,0.19626 0.48173,0.18734 0.82073,0.60663 0.339,0.41929 0.51742,1.08836 0.18734,0.66016 0.18734,1.6147 v 6.32499 h -1.57902 v -6.34283 q 0,-0.75828 -0.1695,-1.21326 -0.16058,-0.46389 -0.49957,-0.66907 -0.33008,-0.2141 -0.83858,-0.2141 -0.46389,0 -0.86533,0.25871 -0.40145,0.2587 -0.70476,0.71367 -0.2944,0.45498 -0.46389,1.04376 -0.16058,0.57987 -0.16058,1.2311 z"
           id="path2532" />
        <path
           d="m 137.2056,105.82964 v -0.91886 q 0,-1.12405 0.28547,-1.97154 0.28548,-0.85642 0.79397,-1.42736 0.5085,-0.57094 1.18649,-0.85642 0.678,-0.29439 1.45413,-0.29439 0.79397,0 1.47196,0.29439 0.678,0.28548 1.18649,0.85642 0.51742,0.57094 0.80289,1.42736 0.28548,0.84749 0.28548,1.97154 v 0.91886 q 0,1.12405 -0.28548,1.98046 -0.28547,0.8475 -0.79396,1.41844 -0.5085,0.57095 -1.1865,0.85642 -0.67799,0.28547 -1.46304,0.28547 -0.78505,0 -1.46304,-0.28547 -0.678,-0.28547 -1.19542,-0.85642 -0.50849,-0.57094 -0.79397,-1.41844 -0.28547,-0.85641 -0.28547,-1.98046 z m 1.57902,-0.91886 v 0.91886 q 0,0.79397 0.16058,1.39168 0.16057,0.5977 0.45497,0.99915 0.29439,0.40144 0.68691,0.60663 0.39253,0.19626 0.85642,0.19626 0.53526,0 0.9367,-0.19626 0.41037,-0.20519 0.678,-0.60663 0.26763,-0.40145 0.40144,-0.99915 0.13382,-0.59771 0.13382,-1.39168 v -0.91886 q 0,-0.79397 -0.16058,-1.38276 -0.16058,-0.5977 -0.45497,-0.99915 -0.29439,-0.41036 -0.69584,-0.60662 -0.39252,-0.20519 -0.85641,-0.20519 -0.45497,0 -0.8475,0.20519 -0.39252,0.19626 -0.68691,0.60662 -0.28548,0.40145 -0.44605,0.99915 -0.16058,0.58879 -0.16058,1.38276 z"
           id="path2534" />
        <path
           d="m 150.23026,100.53949 v 1.26678 h -4.50511 v -1.26678 z m -3.03314,-2.346221 h 1.57901 v 9.607911 q 0,0.49066 0.11598,0.74044 0.12489,0.24979 0.31223,0.33008 0.18734,0.0803 0.40145,0.0803 0.16057,0 0.35684,-0.0357 0.19626,-0.0446 0.26763,-0.0714 l -0.009,1.34707 q -0.16058,0.0624 -0.42821,0.11597 -0.26763,0.0624 -0.678,0.0624 -0.5085,0 -0.94562,-0.24087 -0.43713,-0.24086 -0.70476,-0.80289 -0.26763,-0.57094 -0.26763,-1.53441 z"
           id="path2536" />
      </g>
    </g>
    <path
       style="fill:#000000;stroke-width:0.0915506"
       d="m 53.791954,117.52025 c -2.450149,-0.24555 -4.78211,-1.21485 -6.754777,-2.66547 -1.868855,-1.11394 -3.669955,-2.34076 -5.113348,-3.99398 -2.242793,-1.9298 -2.859786,-5.03627 -2.562592,-7.86304 0.496043,-1.87577 0.973145,-3.839847 2.029281,-5.479885 0.689761,-1.641999 2.598266,-2.839746 4.317091,-3.311338 1.846865,-0.900202 3.88392,-1.164711 5.905749,-1.394082 2.382434,-0.199105 4.789517,0.468963 7.132228,-0.177291 2.185338,-0.07378 3.767516,-1.696111 5.735396,-2.417423 1.958439,-0.978632 4.255561,-1.00721 6.36327,-0.627321 2.092279,0.528083 4.276403,1.573334 5.173423,3.676995 0.989023,1.310901 1.669269,3.642063 1.952676,4.605871 0.08346,1.947376 0.708895,3.927644 0.0047,5.957094 -0.948852,1.48871 -1.648019,3.12488 -2.876654,4.45918 -1.409809,2.11403 -3.461173,3.69809 -5.47352,5.20681 -2.488036,1.4777 -5.173617,2.88063 -8.059682,3.44195 -2.157893,0.4102 -4.440129,0.0331 -6.56604,0.65123 -0.403514,0.0152 -0.806991,-0.0243 -1.207113,-0.0693 z m 6.291212,-2.32214 c 2.298289,-0.48648 4.616637,-0.9367 6.715886,-2.06762 1.76583,-0.86932 3.522023,-1.83828 4.880214,-3.29935 -1.325894,-1.0479 -2.564073,-2.27779 -4.188287,-2.90574 -1.783265,-0.93522 -3.898617,-0.64288 -5.83217,-0.61282 -1.136594,0.23513 -3.889132,1.14195 -3.524237,2.15274 1.277665,1.14087 2.72138,2.24166 3.307666,3.88729 -1.164505,1.49626 -1.990019,-1.55307 -3.191501,-2.09521 -1.424681,-1.34502 -3.175975,-2.36334 -5.174318,-2.66453 -3.021521,-0.23734 -6.231861,-0.24162 -8.990415,1.15747 -1.770302,0.85144 1.058138,2.40757 1.89474,3.21746 2.99077,2.08724 6.531924,3.6949 10.258005,3.49907 1.27962,-0.0266 2.599318,0.089 3.844417,-0.26876 z m 12.568213,-6.48101 c 1.146861,-1.77416 2.933484,-3.4555 2.881213,-5.72036 0.35019,-1.53677 0.614713,-5.684665 -1.750917,-3.49643 -3.812599,0.94254 -7.837137,0.97446 -11.71601,0.417235 -2.036283,-0.539578 -4.033602,-1.058741 -6.036784,-1.630719 -1.74393,-0.999079 -3.069859,-2.845295 -4.960808,-3.453623 -2.851954,0.304187 -5.879658,1.362456 -7.677917,3.705868 -1.329997,1.730459 -2.112766,3.902409 -1.795018,6.104959 -0.1801,3.20362 2.796968,-0.004 4.460047,0.30831 1.994018,-0.18696 4.112297,-0.32241 6.043105,0.26938 1.356312,-0.0823 2.84887,2.12476 3.94661,1.15385 1.811667,-1.96894 4.566537,-2.62602 7.148202,-2.74099 2.606521,-0.0357 5.126096,1.1066 6.989858,2.85258 0.676707,0.70954 1.864917,1.85324 2.468419,2.22994 z M 68.993693,97.710601 c 0.576081,-1.498637 0.921451,-3.035698 0.762818,-4.603477 0.274908,-1.615462 -2.643982,-0.671023 -3.5938,-0.617679 0.136878,1.656251 -1.25321,4.231771 -0.166584,5.327372 0.977727,-0.233351 2.215446,0.595533 2.997566,-0.106216 z m 3.001571,9.96e-4 c 1.44563,-0.35845 4.078123,-0.632809 2.398467,-2.573579 -0.752345,-1.285632 -4.327142,-3.762047 -3.370144,-0.549266 0.146763,1.198793 -1.649964,4.303117 0.971677,3.122845 z m -7.61258,-0.637564 c -0.102087,-1.212377 1.000466,-3.671999 -0.03572,-4.161101 -1.511703,0.900853 -4.274988,0.89248 -4.136601,3.198667 -0.519791,1.495553 2.438857,1.428394 3.478647,1.521029 0.527462,0.0071 0.800266,0.104815 0.693665,-0.558595 z m -5.376002,-0.892619 c 0.5999,-1.666632 -0.557775,-1.550343 -1.870308,-1.301059 -3.116707,-0.003 1.509843,1.826611 1.870308,1.301059 z"
       id="path228"
       sodipodi:nodetypes="sssssssssssssscscsssssssscssssssssssssssssssssssssssssssssssssss" />
  </g>
</svg>
